<svg width="30" height="26" viewBox="0 0 30 26" fill="none" xmlns="http://www.w3.org/2000/svg">
<path d="M11.4152 25.405C6.40817 25.405 2.45081 24.5302 0.557497 23.0054L0.520647 22.9756L0.487231 22.9422C0.037478 22.4922 -0.109922 21.9019 0.0832543 21.3229L0.100878 21.2748C0.335253 20.6886 0.909518 20.294 1.53185 20.2904C2.81267 20.2682 3.93327 20.1155 4.9502 19.8191C3.32811 19.0647 2.20133 17.7585 1.53093 15.8679C1.30548 15.2783 1.50003 14.6246 2.01959 14.2348C2.14777 14.1385 2.29265 14.0657 2.446 14.017C1.54466 12.9765 0.878847 11.7925 0.505999 10.5402L0.494326 10.5013L0.486315 10.4615C0.359744 9.82819 0.64287 9.17702 1.16175 8.89664C1.37941 8.77167 1.61585 8.7069 1.8532 8.7014C1.59731 8.15026 1.41123 7.58446 1.30091 7.01523C0.994662 5.43778 1.24735 3.85643 2.05164 2.31514L2.23772 1.94298C2.38672 1.64521 2.67145 1.43601 2.99967 1.38268C3.32788 1.32958 3.66434 1.43807 3.8994 1.67313L4.23837 2.01256C6.91629 4.82003 9.31497 6.15212 13.4621 7.06353C13.6472 5.47165 14.3355 3.99193 15.4458 2.82738C16.7671 1.44173 18.5316 0.664219 20.4141 0.637669H20.4265C21.8 0.637669 23.5038 1.42182 24.5342 1.9748C25.4182 1.68549 26.4832 1.23757 27.5882 0.764011C28.1053 0.521397 28.7427 0.632404 29.1492 1.0389C29.5477 1.43738 29.6582 1.99929 29.4467 2.5454C29.3664 2.76902 29.2753 2.98851 29.1739 3.2032C29.3252 3.27256 29.4637 3.36663 29.5806 3.48358C29.9342 3.83721 30.0816 4.39064 29.956 4.89373L29.9425 4.94156C29.5191 6.30616 28.7056 7.4176 27.6299 8.11524C27.4502 17.6827 20.2455 25.405 11.4152 25.405ZM2.24459 22.0255C4.02872 23.0349 7.42876 23.6456 11.4152 23.6456C15.2478 23.6456 18.8646 22.0001 21.5991 19.0123C24.3559 16 25.8741 11.9998 25.8741 7.74857V7.70073C25.8741 7.31575 26.0861 6.96442 26.4271 6.7836C27.119 6.41716 27.6793 5.793 28.0437 4.99489C27.6679 5.05417 27.2859 4.90334 27.0517 4.58886C26.7796 4.22333 26.7766 3.72963 27.0442 3.3609C27.1886 3.16178 27.3195 2.95464 27.4362 2.74041C26.482 3.14118 25.5759 3.50052 24.7892 3.73925C24.5033 3.82576 24.1847 3.79189 23.9236 3.64609C22.5231 2.86583 21.2187 2.39937 20.4322 2.39708C17.5302 2.44149 15.1707 4.92691 15.1707 7.94037C15.1707 8.25188 15.0324 8.54393 14.7919 8.74192C14.5511 8.93967 14.238 9.01886 13.9322 8.95844C9.15041 8.01636 6.31685 6.6037 3.37023 3.64266C2.94794 4.65454 2.83258 5.67375 3.02782 6.68015C3.2258 7.69959 3.75246 8.72109 4.55103 9.6341C4.85452 9.98062 4.89481 10.4764 4.65128 10.8675C4.40866 11.2573 3.94747 11.4395 3.50412 11.3207C3.15759 11.2278 2.83899 11.1058 2.53687 10.949C3.15233 12.2859 4.21091 13.5223 5.54163 14.4342C5.92729 14.6986 6.08843 15.1913 5.9337 15.6326C5.77875 16.0746 5.34593 16.3591 4.8781 16.3243C4.36838 16.2865 3.9168 16.1897 3.50115 16.0265C4.2473 17.5461 5.43955 18.3822 7.27632 18.7017C7.71372 18.7779 8.05429 19.1233 8.12387 19.5612C8.19368 19.999 7.97693 20.433 7.58486 20.641C6.0193 21.4709 4.30818 21.9164 2.24459 22.0255Z" fill="white"/>
</svg>
