<svg width="117" height="47" viewBox="0 0 117 47" fill="none" xmlns="http://www.w3.org/2000/svg">
<path d="M42.8787 31.6875H33.4841L31.8435 37H24.5193L34.949 8.5625H41.3943L51.9021 37H44.5388L42.8787 31.6875ZM35.1248 26.3945H41.238L38.1716 16.5312L35.1248 26.3945ZM71.5701 37H64.9685V29.168H59.2068V37H52.6248V15.8672H59.2068V24.1094H64.9685V15.8672H71.5701V37ZM93.9919 37H87.3904V29.168H81.6287V37H75.0466V15.8672H81.6287V24.1094H87.3904V15.8672H93.9919V37ZM109.5 37C109.265 36.5703 109.057 35.9388 108.875 35.1055C107.664 36.6289 105.971 37.3906 103.797 37.3906C101.804 37.3906 100.112 36.7917 98.7185 35.5938C97.3253 34.3828 96.6287 32.8659 96.6287 31.043C96.6287 28.7513 97.475 27.0195 99.1677 25.8477C100.86 24.6758 103.321 24.0898 106.551 24.0898H108.582V22.9766C108.582 21.0365 107.742 20.0664 106.062 20.0664C104.5 20.0664 103.719 20.8346 103.719 22.3711H97.1365C97.1365 20.3268 98.0024 18.6667 99.7341 17.3906C101.479 16.1146 103.699 15.4766 106.394 15.4766C109.09 15.4766 111.219 16.1341 112.781 17.4492C114.344 18.7643 115.144 20.5677 115.183 22.8594V32.2148C115.209 34.1549 115.509 35.6393 116.082 36.668V37H109.5ZM105.379 32.7031C106.199 32.7031 106.876 32.5273 107.41 32.1758C107.957 31.8242 108.347 31.4271 108.582 30.9844V27.6055H106.668C104.376 27.6055 103.23 28.6341 103.23 30.6914C103.23 31.2904 103.432 31.7786 103.836 32.1562C104.239 32.5208 104.754 32.7031 105.379 32.7031Z" fill="white"/>
<path d="M18.2325 10.6134C14.5256 6.99033 14.4673 2.62618 14.4673 2.58311C14.4622 2.43183 14.399 2.28847 14.291 2.18328C14.1831 2.07808 14.0388 2.01929 13.8887 2.01929C13.7386 2.01929 13.5943 2.07808 13.4864 2.18328C13.3784 2.28847 13.3152 2.43183 13.3101 2.58311V26.938C11.5624 25.1503 8.13008 24.7983 4.93028 26.2633C2.71685 27.2771 0.990854 28.9977 0.313607 30.8667C-0.1284 32.0869 -0.102639 33.2819 0.387501 34.3209C1.20101 36.0539 3.18665 37 5.49905 37C6.89466 36.9869 8.27161 36.6751 9.53881 36.0853C11.7522 35.0709 13.4782 33.3509 14.1555 31.4812C14.4341 30.7108 14.468 29.9322 14.468 29.1255V13.7068C15.1837 15.2866 16.1878 16.7165 17.4278 17.9219C20.3659 20.793 20.7896 22.4645 20.8351 23.0489C20.8463 23.1952 20.912 23.3318 21.0188 23.4314C21.1256 23.5311 21.2658 23.5864 21.4113 23.5863H21.4344C21.5838 23.5806 21.7252 23.5167 21.8288 23.4081C21.9325 23.2995 21.9904 23.1546 21.9903 23.0038V17.2062C22.0384 16.7529 22.0736 14.3623 18.2325 10.6134Z" fill="white"/>
</svg>
