<svg width="14" height="22" viewBox="0 0 14 22" fill="none" xmlns="http://www.w3.org/2000/svg">
<g clip-path="url(#clip0)">
<path d="M8.18162 21.957H4.60957C4.01293 21.957 3.52759 21.4783 3.52759 20.8899V12.9433H1.44359C0.846953 12.9433 0.36161 12.4645 0.36161 11.8762V8.47103C0.36161 7.8826 0.846953 7.40388 1.44359 7.40388H3.52759V5.69873C3.52759 4.00801 4.06586 2.56956 5.08402 1.53916C6.1068 0.504044 7.5361 -0.0429688 9.21747 -0.0429688L11.9417 -0.0386048C12.5373 -0.0375976 13.0218 0.441101 13.0218 1.02857V4.19013C13.0218 4.7786 12.5366 5.2573 11.9401 5.2573L10.1059 5.25796C9.54657 5.25796 9.40417 5.36858 9.37367 5.40248C9.32351 5.45871 9.26377 5.61766 9.26377 6.05658V7.40373H11.8023C11.9934 7.40373 12.1785 7.45023 12.3377 7.53786C12.6809 7.72699 12.8943 8.08471 12.8943 8.47125L12.893 11.8763C12.893 12.4645 12.4076 12.9432 11.811 12.9432H9.26377V20.8899C9.26377 21.4783 8.77824 21.957 8.18162 21.957ZM4.83523 20.6673H7.95596V12.3659C7.95596 11.973 8.28009 11.6534 8.67836 11.6534H11.5853L11.5865 8.69359H8.67813C8.27994 8.69359 7.95596 8.37401 7.95596 7.98109V6.05658C7.95596 5.5527 8.00783 4.97968 8.39348 4.54898C8.85942 4.02832 9.59369 3.96823 10.1056 3.96823L11.7141 3.96756V1.2508L9.21643 1.24676C6.51437 1.24676 4.83523 2.95276 4.83523 5.69873V7.98109C4.83523 8.37386 4.51121 8.69359 4.113 8.69359H1.66925V11.6534H4.113C4.51121 11.6534 4.83523 11.973 4.83523 12.3659V20.6673ZM11.9391 1.25113H11.9393H11.9391Z" fill="white"/>
</g>
<defs>
<clipPath id="clip0">
<rect width="13.3571" height="22" fill="white"/>
</clipPath>
</defs>
</svg>
