<svg width="22" height="22" viewBox="0 0 22 22" fill="none" xmlns="http://www.w3.org/2000/svg">
<path d="M16.0447 0H5.95519C2.67145 0 0 2.67145 0 5.95519V16.045C0 19.3285 2.67145 21.9999 5.95519 21.9999H16.045C19.3285 21.9999 21.9999 19.3285 21.9999 16.045V5.95519C21.9999 2.67145 19.3285 0 16.0447 0ZM20.7102 16.045C20.7102 18.6174 18.6174 20.7102 16.0447 20.7102H5.95519C3.38261 20.7102 1.28973 18.6174 1.28973 16.045V5.95519C1.28973 3.38261 3.38261 1.28973 5.95519 1.28973H16.045C18.6174 1.28973 20.7102 3.38261 20.7102 5.95519V16.045Z" fill="white"/>
<path d="M10.9999 4.9845C7.68299 4.9845 4.98451 7.68293 4.98451 10.9999C4.98451 14.317 7.68299 17.0154 10.9999 17.0154C14.3169 17.0154 17.0154 14.317 17.0154 10.9999C17.0154 7.68293 14.3169 4.9845 10.9999 4.9845ZM10.9999 15.7257C8.39432 15.7257 6.27424 13.6058 6.27424 10.9999C6.27424 8.39426 8.39432 6.27422 10.9999 6.27422C13.6058 6.27422 15.7257 8.39426 15.7257 10.9999C15.7257 13.6058 13.6058 15.7257 10.9999 15.7257Z" fill="white"/>
<path d="M17.1593 2.84814C16.179 2.84814 15.3818 3.64558 15.3818 4.62563C15.3818 5.60586 16.179 6.4033 17.1593 6.4033C18.1395 6.4033 18.9369 5.60586 18.9369 4.62563C18.9369 3.64542 18.1395 2.84814 17.1593 2.84814ZM17.1593 5.1134C16.8904 5.1134 16.6715 4.89453 16.6715 4.62563C16.6715 4.35658 16.8904 4.13787 17.1593 4.13787C17.4283 4.13787 17.6472 4.35658 17.6472 4.62563C17.6472 4.89453 17.4283 5.1134 17.1593 5.1134Z" fill="white"/>
</svg>
