<svg width="78" height="38" viewBox="0 0 78 38" fill="none" xmlns="http://www.w3.org/2000/svg">
<path d="M50.112 25.232H42.56L40.736 30H36L44.768 7.44H48.256L57.056 30H52.032L50.112 25.232ZM43.872 21.488H48.992L47.264 16.816L46.496 13.264H46.336L45.568 16.848L43.872 21.488ZM73.6405 11.76H66.5365V30H61.8005V11.76H54.6965V7.6H73.6405V11.76Z" fill="black"/>
<path d="M12.1263 21.6542C12.5871 22.053 12.5871 22.7677 12.1263 23.1665L4.90441 29.4167C4.2567 29.9773 3.25 29.5172 3.25 28.6606L3.25 16.1601C3.25 15.3035 4.2567 14.8434 4.90441 15.404L12.1263 21.6542Z" fill="black"/>
<rect x="14" y="14.6154" width="18" height="15.5897" rx="2" fill="black"/>
<ellipse cx="19.5" cy="10.4103" rx="3.5" ry="3.41026" fill="black"/>
<ellipse cx="27.5" cy="10.4103" rx="3.5" ry="3.41026" fill="black"/>
</svg>
