<svg width="26" height="46" viewBox="0 0 26 46" fill="none" xmlns="http://www.w3.org/2000/svg">
<g clip-path="url(#clip0)">
<path d="M20.9462 -6.66103e-06H5.05383C3.71893 -0.00408265 2.43696 0.51429 1.48941 1.44129C0.541851 2.36828 0.00617369 3.62812 0 4.94417V41.0558C0.00822543 42.3705 0.544806 43.6284 1.49214 44.5538C2.43947 45.4791 3.72027 45.9964 5.05383 45.9923H20.9462C22.2811 45.9964 23.563 45.478 24.5106 44.551C25.4582 43.624 25.9938 42.3642 26 41.0482V4.94417C25.9938 3.62812 25.4582 2.36828 24.5106 1.44129C23.563 0.51429 22.2811 -0.00408265 20.9462 -6.66103e-06ZM24.3361 41.0558C24.3279 41.9355 23.9666 42.7761 23.3313 43.3938C22.696 44.0115 21.8384 44.356 20.9462 44.3519H5.05383C4.1629 44.354 3.30729 44.0086 2.67368 43.3911C2.04006 42.7736 1.67986 41.9341 1.67165 41.0558V4.94417C1.67782 4.06522 2.03737 3.22456 2.67143 2.60664C3.30549 1.98871 4.16228 1.64397 5.05383 1.64805H20.9462C21.8384 1.64396 22.696 1.98845 23.3313 2.60617C23.9666 3.22388 24.3279 4.06452 24.3361 4.94417V41.0558ZM22.6178 4.84452H3.39773C3.34296 4.8435 3.28854 4.85326 3.23764 4.87322C3.18675 4.89318 3.1404 4.92294 3.1013 4.96077C3.06221 4.99859 3.03116 5.04373 3.00997 5.09352C2.98877 5.14332 2.97786 5.19678 2.97787 5.25079V37.2538C2.97787 37.3636 3.02211 37.4689 3.10084 37.5465C3.17958 37.6241 3.28637 37.6677 3.39773 37.6677H22.6178C22.7278 37.6657 22.8326 37.6212 22.9097 37.5438C22.9868 37.4664 23.0299 37.3623 23.0299 37.2538V5.25079C23.0299 5.14304 22.9865 5.0397 22.9092 4.96351C22.8319 4.88732 22.7271 4.84452 22.6178 4.84452ZM22.198 36.8475H3.80981V5.66472H22.198V36.8475ZM13 38.3269C12.4934 38.3254 11.9978 38.4722 11.5759 38.7488C11.1541 39.0253 10.825 39.4191 10.6304 39.8802C10.4359 40.3413 10.3845 40.849 10.483 41.339C10.5814 41.8289 10.8252 42.2789 11.1834 42.6321C11.5417 42.9853 11.9982 43.2256 12.4951 43.3227C12.992 43.4197 13.507 43.3691 13.9747 43.1773C14.4425 42.9855 14.8419 42.6611 15.1224 42.2452C15.4029 41.8293 15.5518 41.3406 15.5502 40.8412C15.5502 40.1744 15.2816 39.5349 14.8033 39.0633C14.325 38.5918 13.6764 38.3269 13 38.3269ZM13 42.5352C12.6602 42.5352 12.3279 42.4359 12.0454 42.2497C11.7628 42.0636 11.5426 41.799 11.4125 41.4895C11.2824 41.1799 11.2484 40.8393 11.3147 40.5107C11.381 40.1821 11.5447 39.8802 11.785 39.6433C12.0253 39.4064 12.3315 39.2451 12.6648 39.1797C12.9981 39.1143 13.3436 39.1479 13.6576 39.2761C13.9715 39.4043 14.2399 39.6214 14.4287 39.9C14.6175 40.1786 14.7183 40.5061 14.7183 40.8412C14.7224 41.0662 14.681 41.2898 14.5965 41.4989C14.512 41.708 14.3861 41.8984 14.2262 42.0589C14.0662 42.2195 13.8754 42.347 13.6648 42.4341C13.4543 42.5211 13.2283 42.5659 13 42.5659V42.5352ZM10.2398 3.21946C10.2496 3.13124 10.2943 3.05039 10.3642 2.99443C10.434 2.93847 10.5234 2.91191 10.613 2.92051H15.3947C15.4839 2.91388 15.5723 2.94116 15.6417 2.99676C15.7111 3.05236 15.7563 3.13204 15.7679 3.21946C15.764 3.26382 15.7513 3.30698 15.7304 3.34644C15.7095 3.38591 15.6808 3.42091 15.6461 3.44941C15.6114 3.47792 15.5714 3.49937 15.5282 3.51253C15.4851 3.52568 15.4397 3.53029 15.3947 3.52607H10.613C10.5227 3.53256 10.4333 3.50422 10.3637 3.44703C10.2941 3.38984 10.2497 3.30826 10.2398 3.21946Z" fill="white"/>
<g clip-path="url(#clip1)">
<path d="M19.6321 25.4852L17.6748 23.6808C16.9756 23.0367 15.7869 23.2943 15.5072 24.1316C15.2974 24.7103 14.5982 25.0334 13.9689 24.9046C12.5699 24.5825 10.6825 22.9079 10.3323 21.5553C10.1225 20.9766 10.5421 20.3315 11.1714 20.1383C12.0804 19.8806 12.3601 18.7857 11.6608 18.1416L9.70299 16.3381C9.1436 15.8873 8.30452 15.8873 7.81451 16.3381L6.48651 17.5619C5.15796 18.8501 6.62636 22.2648 9.91276 25.291C13.1992 28.3172 16.9051 29.7352 18.3036 28.447L19.6321 27.2233C20.1216 26.708 20.1216 25.9351 19.6321 25.4852Z" fill="white"/>
</g>
</g>
<defs>
<clipPath id="clip0">
<rect width="26" height="46" fill="white"/>
</clipPath>
<clipPath id="clip1">
<rect width="14" height="12.9231" fill="white" transform="translate(6 16)"/>
</clipPath>
</defs>
</svg>
