<svg width="60" height="60" viewBox="0 0 60 60" fill="none" xmlns="http://www.w3.org/2000/svg">
<g clip-path="url(#clip0)">
<path d="M51.5348 23.6429H51.4498C50.3226 23.634 49.2297 24.0326 48.3729 24.7654C47.6464 22.879 45.8894 21.529 43.8372 21.529C42.5907 21.5417 41.3991 22.0438 40.5195 22.9276C39.7044 21.3051 38.0492 20.2767 36.2336 20.264H36.1438C35.1386 20.264 34.1555 20.5243 33.4798 21.076V9.63468C33.4798 6.79269 31.2623 4.48077 28.5687 4.48077C25.8777 4.48077 23.674 6.79058 23.6719 9.63099L23.6492 32.416L22.4803 30.9968C21.3262 29.5603 19.6272 28.668 17.7894 28.5334C15.9896 28.4104 14.2189 29.0365 12.8969 30.2635L11.7665 31.2012C11.3748 31.5259 11.2623 32.0807 11.4978 32.5321L22.5051 53.6863C24.5309 57.5778 28.386 60.0001 32.5664 60.0001H44.9126C51.2476 60.0001 56.4073 54.5088 56.4136 47.7653C56.4163 44.7696 56.4194 42.5358 56.4216 40.7255C56.4279 35.8767 56.4305 34.0933 56.4179 28.752C56.411 25.9179 54.2205 23.6429 51.5348 23.6429ZM54.2591 40.7202C54.2569 42.5311 54.2538 44.7675 54.2511 47.7631C54.2459 53.3157 50.0565 57.8376 44.9126 57.8376H32.5664C29.1954 57.8376 26.0757 55.8615 24.4237 52.6879L13.8181 32.3104L14.2965 31.9123C14.3102 31.9007 14.3245 31.888 14.3377 31.8759C15.2257 31.0401 16.4204 30.6109 17.6369 30.6912C18.8802 30.7867 20.028 31.3944 20.8056 32.3695L23.8863 36.1196C24.1761 36.4723 24.656 36.6048 25.0858 36.4512C25.5155 36.2975 25.8027 35.8899 25.8027 35.4338L25.8212 9.63204C25.8223 7.98429 27.0698 6.64328 28.5698 6.64328C30.0697 6.64328 31.3172 7.98482 31.3172 9.63468V25.1909C31.3172 25.2453 31.3146 25.3002 31.3146 25.3551C31.3146 25.3794 31.3172 25.4042 31.3172 25.4285V32.0765C31.3172 32.6736 31.8014 33.1578 32.3985 33.1578C32.9956 33.1578 33.4798 32.6736 33.4798 32.0765V25.2273C33.4798 23.6377 34.6824 22.4265 36.1438 22.4265H36.2336C37.734 22.4265 39.0212 23.7063 39.0212 25.3562V31.4424C39.0212 32.0396 39.5053 32.5237 40.1024 32.5237C40.6996 32.5237 41.1837 32.0396 41.1837 31.4424V26.6671C41.1837 25.0177 42.3822 23.6757 43.891 23.6757C45.3915 23.6757 46.59 25.0172 46.59 26.6671V31.1721C46.59 31.7692 47.0741 32.2534 47.6712 32.2534C48.2683 32.2534 48.7525 31.7692 48.7525 31.1721V28.7324C48.7525 27.0836 49.9499 25.8054 51.4498 25.8054H51.5348C53.031 25.8054 54.2511 27.1111 54.2554 28.7557C54.268 34.0933 54.2654 35.8746 54.2591 40.7202Z" fill="black"/>
<path d="M13.23 25.4269C12.8076 25.0045 12.1229 25.0045 11.701 25.4269L9.82732 27.3006V4.80969L11.701 6.68288C12.1234 7.10524 12.8082 7.10524 13.23 6.68288C13.6524 6.26051 13.6524 5.57575 13.23 5.15339L9.78086 1.70478C9.66471 1.3199 9.34424 1.03111 8.9488 0.955613C8.55389 0.880115 8.14948 1.03058 7.89975 1.3463L7.89606 1.34947L4.09161 5.15339C3.66924 5.57575 3.66924 6.26051 4.09161 6.68288C4.51344 7.10524 5.1982 7.10524 5.62057 6.68288L7.66481 4.63863V27.4717L5.62057 25.4269C5.1982 25.0045 4.51397 25.0045 4.09161 25.4269C3.66924 25.8493 3.66924 26.534 4.09161 26.9558L7.89606 30.7608C8.31842 31.1832 9.00318 31.1832 9.42555 30.7608L13.23 26.9558C13.6524 26.534 13.6524 25.8493 13.23 25.4269Z" fill="black"/>
<path d="M21.6293 9.06237C21.6293 5.25158 24.7183 2.16251 28.5291 2.16251C32.3399 2.16251 35.429 5.25158 35.429 9.06237C35.429 9.65948 35.9131 10.1436 36.5102 10.1436C37.1073 10.1436 37.5915 9.65948 37.5915 9.06237C37.5915 4.05734 33.5341 0 28.5291 0C23.5241 0 19.4668 4.05734 19.4668 9.06237C19.4668 9.65948 19.9509 10.1436 20.548 10.1436C21.1451 10.1436 21.6293 9.65948 21.6293 9.06237Z" fill="black"/>
</g>
<defs>
<clipPath id="clip0">
<rect width="60" height="60" fill="white"/>
</clipPath>
</defs>
</svg>
