<svg width="27" height="22" viewBox="0 0 27 22" fill="none" xmlns="http://www.w3.org/2000/svg">
<path d="M25.7858 0.602336C25.4661 0.213814 24.9868 0 24.4363 0C24.1137 0.00457298 23.7945 0.0675649 23.4946 0.185881L1.32531 8.58862C0.148788 9.03403 -0.0097869 9.7029 0.000443752 10.0615C0.0106744 10.42 0.205057 11.0772 1.40716 11.4586L1.42864 11.4647L6.02732 12.7715L8.51439 19.8309C8.85302 20.7933 9.61418 21.3916 10.5007 21.3916C11.0598 21.3916 11.6092 21.159 12.0905 20.7191L14.9367 18.1209L19.0627 21.4195L19.1021 21.4505L19.1128 21.4591C19.5732 21.8121 20.0725 21.999 20.561 21.999C21.516 21.999 22.2767 21.2971 22.4987 20.2103L26.1305 2.40223C26.2763 1.68867 26.1541 1.04926 25.7858 0.602336ZM7.5655 12.5241L16.4375 8.02438L10.913 13.8522C10.8224 13.9474 10.7582 14.0643 10.7268 14.1915L9.66124 18.4759L7.5655 12.5241ZM11.049 19.6003C11.0122 19.6338 10.9749 19.6638 10.938 19.6917L11.9263 15.7176L13.7243 17.1549L11.049 19.6003ZM24.6266 2.10107L20.9937 19.9086C20.959 20.0792 20.8474 20.4759 20.56 20.4759C20.4183 20.4759 20.2402 20.3987 20.0576 20.2595L15.3827 16.5221L12.599 14.2971L20.5876 5.86897C20.711 5.73822 20.7841 5.56846 20.7939 5.38953C20.8037 5.2106 20.7497 5.03395 20.6414 4.89064C20.533 4.74733 20.3772 4.64654 20.2014 4.60598C20.0256 4.56542 19.841 4.58768 19.6801 4.66887L6.54039 11.3332L1.8793 10.0091L24.042 1.60945C24.1671 1.55746 24.3007 1.52839 24.4363 1.52362C24.4834 1.52362 24.5673 1.5292 24.598 1.56729C24.6389 1.61656 24.6906 1.78466 24.6266 2.10107Z" fill="white"/>
</svg>
